/* XPM */
static char *_c7ad1503c4c455bf76453acefd4f67dVhhoyk1OyD8p6lH0[] = {
/* columns rows colors chars-per-pixel */
"32 32 176 2 ",
"   c None",
".  c #1E0707",
"X  c #1D0909",
"o  c #1E0A0A",
"O  c #1F0B0A",
"+  c #181818",
"@  c #191919",
"#  c #1B1818",
"$  c gray10",
"%  c #1A1B1B",
"&  c #1B1B1B",
"*  c #1E1D1E",
"=  c #1E1E1E",
"-  c gray12",
";  c #200B0A",
":  c #200B0B",
">  c #210B0B",
",  c #230C0C",
"<  c #250D0C",
"1  c #201D1D",
"2  c #2C1D1D",
"3  c #2F1D1D",
"4  c #2F1F1F",
"5  c #381313",
"6  c #381413",
"7  c #391413",
"8  c #3A1413",
"9  c #3B1414",
"0  c #3E1C1C",
"q  c #201F20",
"w  c #212021",
"e  c gray18",
"r  c gray19",
"t  c #323232",
"y  c #383738",
"u  c #3A393A",
"i  c #411E1E",
"p  c #411F1F",
"a  c #464344",
"s  c #474647",
"d  c #A21616",
"f  c #B71A1A",
"g  c #B71C1C",
"h  c #B81B1B",
"j  c #BA1E1E",
"k  c #BB1F1F",
"l  c #BE1F1F",
"z  c #A92727",
"x  c #A52D2D",
"c  c #AC2929",
"v  c #BC2020",
"b  c #BD2020",
"n  c #BB2727",
"m  c #B82828",
"M  c #B82929",
"N  c #BB2929",
"B  c #BC2929",
"V  c #B43737",
"C  c #BD3535",
"Z  c #BE3535",
"A  c #BF3536",
"S  c #BA3B3C",
"D  c #CD2B2B",
"F  c #CE2B2B",
"G  c #D02D2D",
"H  c #D32D2D",
"J  c #D12E2E",
"K  c #D32E2E",
"L  c #D32F2F",
"P  c #D42E2E",
"I  c #D42F2F",
"U  c #D52F2F",
"Y  c #C13737",
"T  c #D33232",
"R  c #D53332",
"E  c #D63333",
"W  c #D63433",
"Q  c #DA3535",
"!  c #D83635",
"~  c #D93636",
"^  c #D93736",
"/  c #BD413F",
"(  c #BD423F",
")  c #BE423F",
"_  c #CB403E",
"`  c #BD4040",
"'  c #BE4240",
"]  c #C24341",
"[  c #CC4240",
"{  c #D64546",
"}  c #D64646",
"|  c #D84646",
" . c #D84647",
".. c #D04846",
"X. c #D14846",
"o. c #D24946",
"O. c #D44A47",
"+. c #D54A47",
"@. c #D64A47",
"#. c #D64A48",
"$. c #E74B49",
"%. c #EA4C49",
"&. c #E94C4A",
"*. c #EA4C4A",
"=. c #EB4D4A",
"-. c #EC4D4A",
";. c #EC4F4C",
":. c #E6504D",
">. c #EE504D",
",. c #EC524F",
"<. c #ED524F",
"1. c #EE524F",
"2. c #ED5350",
"3. c #EE5350",
"4. c #EF5350",
"5. c #F15350",
"6. c #F15451",
"7. c #F25451",
"8. c gray59",
"9. c #979696",
"0. c #969797",
"q. c #9A9A9A",
"w. c #9B9B9B",
"e. c gray62",
"r. c #B09E9F",
"t. c #A9A9A9",
"y. c #A9AAAA",
"u. c #AEAEAE",
"i. c #AFAFAF",
"p. c #AFB0B1",
"a. c #B2B2B2",
"s. c #B3B2B3",
"d. c #B6B6B6",
"f. c #BBB9BB",
"g. c #BCBABC",
"h. c #CCB8BB",
"j. c #CDBABD",
"k. c #D0BCBF",
"l. c #C0BEC0",
"z. c #C1BFC1",
"x. c #C3C3C3",
"c. c gray79",
"v. c #CAC9CA",
"b. c #CBC9CB",
"n. c #CACACA",
"m. c #CBCACB",
"M. c #CDCCCD",
"N. c #CECCCE",
"B. c #CFCCCF",
"V. c #D0CDD0",
"C. c #D0CFD1",
"Z. c #D3D0D3",
"A. c #D4D1D4",
"S. c #E4CFD1",
"D. c #E6D1D4",
"F. c #E7D1D4",
"G. c #E8D3D5",
"H. c #EAD3D6",
"J. c #EBD5D8",
"K. c #ECD5D8",
"L. c #E5E2E5",
"P. c #E5E3E5",
"I. c #E6E3E6",
"U. c #E6E5E7",
"Y. c #E9E6E9",
"T. c #EAE8EA",
"R. c #EBE8EB",
"E. c #EBE9EC",
"W. c #ECE9EC",
"Q. c #EDEAED",
"!. c #EDEBEE",
"~. c #EEEBEE",
"^. c #EDECEF",
"/. c #EEECEF",
"(. c #EFECEF",
"). c #EFEEF1",
/* pixels */
"                                                                ",
"                                                                ",
"                                                                ",
"                        ; > > > > > <                           ",
"                  ; ; 6 / o...o.o.[ #...9 o                     ",
"                9 / o.#.4.6.5.5.7.7.5.3.#.` 9                   ",
"            o 6 ] 5.5.,.>.=.-.,.3.;.;.;.,.,.] 5 <               ",
"          9 / #.,.,.&.! R ! W W ! R R R ! =.,.@.@.:.            ",
"        o / 4.6.4.=.! K L L L L L L L L L ! &.5.6.o.,           ",
"        6 @.6.4.=.! K T L L L L L L L L L K ! =.5.#.6           ",
"      o ` ,.3.=.! K K K L L L L L L L L K F K W =.,./ o         ",
"      6 #.5.=.! T K K T L L I I I L L D v j j v T =.@.6         ",
"    > ` 3.=.! L K K L L L K N M B K D v g g g g v T $./ ;       ",
"    ; o.-.! L K T K L L K c p 3 p z k g f h g g g v R [ >       ",
"    ; _ ! P P K K K K P m i 8.t.8.0 d g h h f h f f l N .       ",
"    o `  .{ { { { { { { S 4 t.d.t.3 x C C C C C C C Y V o       ",
"    1 k.K.H.G.G.H.G.G.G.k.a 0.t.0.a j.G.D.D.D.D.D.D.S.r.#       ",
"    q C.(.).Q.).Q.Q.).).R.x.s r s z.E.).).Q.E.).).Q.U.p.%       ",
"    q f.W.W.Q.Q.Q.Q.Q.Q.Q.R.A.B.C.R.Q.Q.Q.Q.Q.Q.E.Y.c.w.#       ",
"      y C.(.Q.Q.Q.Q.Q.Q.Q.Q.(.(.(.Q.Q.Q.Q.Q.Q.Q.Q.I.a.e         ",
"      q f.W.Q.Q.Q.Q.Q.Q.Q.Q.Q.Q.Q.Q.Q.Q.Q.Q.Q.Q.I.c.w.%         ",
"        y A.(.Q.Q.Q.Q.Q.Q.Q.Q.Q.Q.Q.Q.Q.Q.Q.Q.I.M.i.e           ",
"        1 f.~.(.Q.Q.Q.Q.Q.Q.Q.Q.Q.Q.Q.Q.Q.Q.I.M.x.q.#           ",
"          u g.C.W.Q.Q.Q.Q.Q.Q.Q.Q.Q.Q.Q.Q.I.c.u.q.r             ",
"            * y z.Q.Q.).Q.Q.Q.Q.Q.Q.Q.Y.I.m.e.e #               ",
"                u f.V.Z.Q.Q.Q.).Q.T.U.c.a.w.r                   ",
"                  q q y g.V.B.B.m.s.p.w.e +                     ",
"                        1 w w w q % % #                         ",
"                                                                ",
"                                                                ",
"                                                                ",
"                                                                "
};
