/* XPM */
static char *f459f2e720c54bd0fb348315313bb4d9LofCyr7curR7LCbp[] = {
/* columns rows colors chars-per-pixel */
"32 32 25 1 ",
"  c None",
". c black",
"X c #546363",
"o c #606F6F",
"O c red",
"+ c #B79F40",
"@ c #E7CC60",
"# c #7F8E8E",
"$ c #97A6A6",
"% c #ABBABA",
"& c #B9B9B9",
"* c #B1C0C0",
"= c #CECECE",
"- c #C6D5D5",
"; c #CBDADA",
": c #CCDBDB",
"> c #CDDCDC",
", c #CEDDDD",
"< c #DFEEEE",
"1 c gray90",
"2 c #E0EFEF",
"3 c #E3F2F2",
"4 c #E6F5F5",
"5 c #EBFAFA",
"6 c azure",
/* pixels */
"                                ",
"                                ",
"        ..                      ",
"        ..                      ",
"      ..OO....                  ",
"      ..OO....                  ",
"    ..OO66----..        ..      ",
"    ..OO66----..        ..      ",
"    ..OO66..66--..    ..--..    ",
"    ..OO66..66--..    ..--..    ",
"  ..++4444444466--....--55--..  ",
"  ..++4444444466--....--55--..  ",
"    ..OOOO444433,:;;,:4455--..  ",
"    ..OOOO444433:,;;:,4455--..  ",
"    ..OO<<<<22,,666666----$$..  ",
"    ..OO<<<<22,,666666----$$..  ",
"      ..$$%%22,,66666666**..    ",
"      ..$$%%22,,66666666**..    ",
"        ..oo%%$$::6666--$$..    ",
"        ..oo%%$$::6666--$$..    ",
"          ..XX##$$----$$..      ",
"          ..XX##$$----$$..      ",
"            ..XXXX##XX..        ",
"            ..XXXX##XX..        ",
"        11==..++..++..11        ",
"        11==..++..++..11        ",
"      11==..@@..@@..&&==11      ",
"      11==..@@..@@..&&==11      ",
"        11==&&&&&&&&==11        ",
"        11==&&&&&&&&==11        ",
"                                ",
"                                "
};
