/* XPM */
static char *_ac70dd65af64466c231f7bd9e546ba9RYsAscnk7vGXmmNp[] = {
/* columns rows colors chars-per-pixel */
"32 32 141 2 ",
"   c None",
".  c #2F2B2A",
"X  c #3F2925",
"o  c #332B29",
"O  c #342C29",
"+  c #372C29",
"@  c #352D2A",
"#  c #362D2A",
"$  c #362E2A",
"%  c #362E2B",
"&  c #372E2B",
"*  c #372F2C",
"=  c #372F2D",
"-  c #382D2A",
";  c #37302D",
":  c #38302D",
">  c #38302E",
",  c #39322F",
"<  c #3A322F",
"1  c #3D3939",
"2  c #3D3A39",
"3  c #462D28",
"4  c #462E28",
"5  c #472E28",
"6  c #472E29",
"7  c #452F2B",
"8  c #482E29",
"9  c #482F29",
"0  c #45302B",
"q  c #46302B",
"w  c #47312C",
"e  c #48312C",
"r  c #4B312C",
"t  c #49322C",
"y  c #4B322C",
"u  c #4C322C",
"i  c #4D322C",
"p  c #4D332C",
"a  c #4C322D",
"s  c #4D332D",
"d  c #48342F",
"f  c #4D342E",
"g  c #4E342E",
"h  c #44403E",
"j  c #49423F",
"k  c #64473D",
"l  c #64473E",
"z  c #65483E",
"x  c #65483F",
"c  c #66483E",
"v  c #67493E",
"b  c #66493F",
"n  c #67493F",
"m  c #68493F",
"M  c #484240",
"N  c #4C4542",
"B  c #674A41",
"V  c #674B41",
"C  c #674C42",
"Z  c #684B41",
"A  c #694B41",
"S  c #684B42",
"D  c #694B42",
"F  c #6C4B40",
"G  c #6B4C41",
"H  c #684C42",
"J  c #694C42",
"K  c #684C43",
"L  c #6A4C42",
"P  c #6B4D42",
"I  c #6A4D43",
"U  c #6B4E43",
"Y  c #6E4D41",
"T  c #6C4D42",
"R  c #6E4D42",
"E  c #6F4D42",
"W  c #6F4E42",
"Q  c #6E4E43",
"!  c #6F4E43",
"~  c #704E42",
"^  c #704E43",
"/  c #714E43",
"(  c #714F43",
")  c #714F44",
"_  c #6E5045",
"`  c #6F5045",
"'  c #6F5146",
"]  c #715045",
"[  c #725044",
"{  c #725045",
"}  c #725145",
"|  c #705146",
" . c #725146",
".. c #735146",
"X. c #715246",
"o. c #725246",
"O. c #735246",
"+. c #725247",
"@. c #735247",
"#. c #745246",
"$. c #755246",
"%. c #745247",
"&. c #755247",
"*. c #745347",
"=. c #755347",
"-. c #765246",
";. c #765346",
":. c #775346",
">. c #765347",
",. c #775347",
"<. c #725449",
"1. c #735449",
"2. c #73554A",
"3. c #785448",
"4. c #795548",
"5. c #795649",
"6. c #79564A",
"7. c #7A574A",
"8. c #7A574B",
"9. c #7B574B",
"0. c #7B584B",
"q. c #7B584C",
"w. c #7D5A4E",
"e. c #7D5B4E",
"r. c #7F5B4F",
"t. c #775B51",
"y. c #7A5E54",
"u. c #7A5E55",
"i. c #7B5F55",
"p. c #7F6359",
"a. c #826156",
"s. c #836256",
"d. c #836257",
"f. c #846458",
"g. c #846459",
"h. c #856459",
"j. c #856559",
"k. c #86655A",
"l. c #87675C",
"z. c #88675C",
"x. c #88685C",
/* pixels */
"                    g a r r y y y y y y a g                     ",
"                g a y 9 6 6 6 6 6 6 6 6 9 y a g                 ",
"              g y 6 r D [ O.[ W Q ) O.( F a 6 a g               ",
"            g y a W ( :.O.k.0.( ) 8.k.:.:.) W a y g             ",
"          g y a W a.O.:.O.l.9.F W 9.l.) %.+.a.) a y g           ",
"        g a 9 m 9.) W :.O.l.9.W F 9.l.O.%.O.) 4.m 6 a g         ",
"        g y g :.9.Q W O.) l.0.O.W 9.l.O.9.f.O.4.3.p y g         ",
"      g a 6 W s.q.g.O.:.O.g.e.f.O.9.l.) 9.k.O.2.s.W 6 a g       ",
"      g a 6 ( O.9.l.O.:.W ) q.l.O.0.k.O.9.l.O.:.:.) 6 a a       ",
"      g y 6 ( W 9.l.O.:.F W 9.l.O.2.f.O.9.l.O.:.W W 6 a g       ",
"      g y y O.) 0.z.O.:.W W q.l.O.:.O.W 9.k.O.>.) O.a y g       ",
"    g a 6 v t.B ` y.B D l l ` y.D D l l ` y.J J D t.v 0 y g     ",
"    g a X - ; ; * , + + ; o * ; + + o ; * > * + * * ; 2 o 0     ",
"    g u 3 v J y.2.y.C ` p.C U y.J J J y.<.t.B ` y.D C M d g     ",
"    g a 3 v J y.2.y.D Q y.B ` p.J J J y.` C B ' u.U C M d g     ",
"    g a X + + , * * + * ; + + ; o + + , + o * * > * ; 2 o y     ",
"    g p 3 B C p.Q l l ` y.B D B C J J y.` B y.<.y.D l 7 y g     ",
"    g r 3 _ K p.9.W O.q.l.O.:.) f.0.O.x.9.O.x.e.f.O.( 6 y a     ",
"    g r 3 B , N O.O.f.e.f.O.:.O.k.9.O.k.9.` l.9.O.W Q 6 a g     ",
"    g r 0 v . M ` O.l.q.) W :.) l.0.O.l.9.O.l.9.W ) ) 6 a g     ",
"    g a 9 m o d ` O.l.q.W F :.O.l.0.O.g.9.) l.9.O.f.O.6 a g     ",
"    g u 9 l * M *.O.l.0.W F :.O.l.0.W Q %.O.l.9.O.x.*.6 u g     ",
"    g u 6 W v B :.O.l.2.W W :.O.l.q.W W :.O.g.8.O.k.*.6 a g     ",
"    g u 6 ( O.W :.O.x.q.W _ :.O.f.2.W W :.W Q %.O.l.>.6 u g     ",
"    g u 6 :.k.O.3.>.x.0.[ f.0._ O.>.O.` >.W W >.+.l.+.6 y g     ",
"    g u 3 J y.B m C p.J v p.` l l ` t.C J l l J B y.U 7 0 g     ",
"    g a X + , + o o ; + o , + o o + > + + : + + o * * 2 o y     ",
"    g a 3 J p.C _ l l J J y.` v v ` y.v W p.J J v v K M d g     ",
"    g r 3 J p.v J v v _ J y.` l l ` p.v ` y.J J l v K M d f     ",
"    g f X + ; + + + o + + , ; o o ; ; o + , + * ; o ; 2 o y     ",
"    g r 6 J p.v ` y.J J C y.` v n J l k ` y.D ` y.C B 6 0 g     ",
"    g r 6 *.l.O.9.x.O.>.O.x.0.O.f.9.W W 0.x.O.q.x.O.) 9 a g     "
};
