/* XPM */
static char *e0972ec1077943edc1cd657d1c386eafs35If6Jwe9iwOLvz[] = {
/* columns rows colors chars-per-pixel */
"32 32 68 1 ",
"  c None",
". c #1E5E0C",
"X c #2C4E0F",
"o c #344E0F",
"O c #26540E",
"+ c #29500F",
"@ c #225A0D",
"# c #29590D",
"$ c #36520E",
"% c #38520E",
"& c #335A0D",
"* c #3A5B0D",
"= c #2F4710",
"- c #2E4A10",
"; c #334411",
": c #324910",
"> c #17670A",
", c #1A630B",
"< c #136C09",
"1 c #1B6A0A",
"2 c #0B7607",
"3 c #047E05",
"4 c #097A06",
"5 c #0E7208",
"6 c #107507",
"7 c #1D7607",
"8 c #147C06",
"9 c #1F7E06",
"0 c #107108",
"q c #1B7208",
"w c #23620B",
"e c #2D630B",
"r c #29690A",
"t c #34660A",
"y c #3C650A",
"u c #366C09",
"i c #3D6C09",
"p c #217707",
"a c #2C7607",
"s c #207907",
"d c #2D7B06",
"f c #237208",
"g c #357707",
"h c #3E7507",
"j c #347A07",
"k c #357308",
"l c #3D7308",
"z c #406E09",
"x c #427607",
"c c #437C06",
"v c #417208",
"b c #028105",
"n c #0D8304",
"m c #138404",
"M c #1C8404",
"N c #1F8804",
"B c #238604",
"V c #2A8205",
"C c #268903",
"Z c #298903",
"A c #398505",
"S c #358C03",
"D c #3C8D02",
"F c #458205",
"G c #468C03",
"H c #498D02",
"J c #449102",
"K c #4A9102",
/* pixels */
"                                ",
" ;;;,bbbb3O;;:23-;;+3<;;;;;.b,; ",
" ;%yjBq>,>ty@,,,,@;+34,O;+,,>,@ ",
" ;yKHKy;;;cJm3--42:+3bb<;@b,;>b ",
" ;eCjy$;*iiiVV:-44>1VCCdzgCs,0b ",
" ;,b.;;;xK*;FH%-4bbmJKKKKKKC3bb ",
" ;@b5>O;*y,>ty>>...eKDBBBBBmb<@ ",
" ;,bbb.;;;03+=24-;;%HSbb3bbbb@; ",
" >5b<Ouxxxe.><34-:vv*rb5@>b3b,; ",
" bbb.;iKKH$;5334X$GF:+b<;.bbb.; ",
" SSSt;o***10.OOO<6m7;#b452b>O,0 ",
" KKKz;;:;:<3X;=X2bb5;O3b33b>;,3 ",
" Kx%:;ic75@X:;<5#@35:Ob0+,bBFy+ ",
" Hi--:lJm3O;:o52-+40:#4<-.3VHz; ",
" %w2544mbbO;xF&O55+&FxX@2,-X$:; ",
" -.4443b44#%cF$+55-&Fx$@4>---;; ",
" 4,---<3.:xG*:55+O20o*Gl-,444.; ",
" b<-:%,2O;vF&+05--88oyKx%#44b.; ",
" bb3VGy=:;::04O:;$GGGHKKHi:,b.; ",
" 54bCKy;-+++23@-;oADcFFFDk;@5@; ",
" ;,bZKy;>b333bb2--36::;@b,;;;=; ",
" O>bMDrO5bbbb35<@.<,;:O,b1;o*** ",
" 3bbbbb33bbbb4+-42-;;O33b1;yHHH ",
" b4><<2bbb0<MMX->1&y*uMnb5@kKFx ",
" b,;;;>3bbO;FH$;;%GKKKKSbb3CKy; ",
" >,.#zaMq>,@VV::@wGKKGKA>0bsve. ",
" ;@bCKKK*;5bb3--4nGKKKKx;.b,;,b ",
" ,0bCKKK*=aVVVku44uxKFv*;+,,,0b ",
" bbbZKKH*;cKKKKJn2=%Jx:;;;;,bbb ",
" .<bmBBBq,BBkyyyw,,,y*;X,rzgZf. ",
" ;.bbbbbbbb3+;;;;-35;;;@3NKKHz; ",
"                                "
};
