/* XPM */
static char *_0774d8ed53e4bf1fefb6bcbd3686443swXzCV9HujJxH690[] = {
/* columns rows colors chars-per-pixel */
"32 32 51 1 ",
"  c #383631",
". c #3D3A34",
"X c #413F39",
"o c #44413C",
"O c #4A4741",
"+ c #4D4A43",
"@ c #514E47",
"# c #524F48",
"$ c #55514A",
"% c #59554D",
"& c #5C584F",
"* c #5A5651",
"= c #5D5952",
"- c #625D55",
"; c #625E58",
": c #656057",
"> c #66615A",
", c #69655C",
"< c #6E685F",
"1 c #6A6760",
"2 c #6F6A62",
"3 c #726D63",
"4 c #736F68",
"5 c #767166",
"6 c #787267",
"7 c #76726B",
"8 c #7B756B",
"9 c #7E786D",
"0 c #7D7971",
"q c #807A6E",
"w c #837D72",
"e c #827F79",
"r c #868075",
"t c #888277",
"y c #86827B",
"u c #8B857B",
"i c #8E887D",
"p c #908A7F",
"a c #8A8780",
"s c #8E8980",
"d c #938D83",
"f c #969086",
"g c #989287",
"h c #959088",
"j c #9A958B",
"k c #9F998E",
"l c #9E9991",
"z c #A29C93",
"x c #A6A197",
"c c #A6A198",
"v c #A9A39A",
/* pixels */
"9ay00w0ww2$yay00ww0w-;syw00w0w9$",
"cfipiisut22csuiiiity-tziisipit0%",
"hq68wrqw9-,d669rqww7%0i57wrqwq2$",
"jrw8q9wtr::hqw9qqwtw$0p999w8tt5+",
"9,,,,<:--+@9,,,,<---X>5,<,2,->&.",
",,,,%#,>-*=,,,>@=,:-*;,,,=+>,==%",
"fddd:evjgffdddt-jzjffdfdd7,vjjhh",
"9wq8&wi66q9qw95&dw5899wq9><f8599",
"rwqq%0prq8qrqq6%dtwq8wwqq,>dww99",
"9665O7r9969977,+wqq86q776%=i9966",
"$%$+o#=%*%#$%#Oo==&&%#%%#oO-***$",
"hjhdsidii5=kjddiidip-4zgdssssir%",
"ztqrrttrq,2kwwrretwq&ygqqtttrw5%",
"fw86rrqtq:>d969tqww8%0i66qtqtw3@",
"jwq9689ww-:g9q68qqwq#9pqq898qw5o",
",=-==-$$@oo,=-=-&$##.$:&-=-%$@+.",
"0q80-;ew788q0q7#3u08880081$we077",
"usiu-uzpsiiuuiw-kjiiiisii33zdiid",
"qw88%qu688qqw85%iq778qqq8,,d8788",
"wwqw%0dtwqwwww8$ditwqwwqw,;jtwqw",
"2;;-X;5<2<3,,-&X4<<<<3,,-O@8<<,3",
"-1,-*;,,;-@;,;-*,,,,%#1,;*-,,,-@",
"zzjggdgpd6,vjgggdddp-wvjjgdgdit&",
"jq5qwwqqq-1gq7qwwwq7&wi78qwwwq3#",
"jwq8wwqtw;;gqq8wqweq%quq8qwqww8@",
"pq8535455%-i66555563O5w6637566,X",
"-=*=$#$#@oO-%-%$$$#@X$-&-%#$#@+X",
"iiii;4zgdsspiiw*uzddssppi5-jjgss",
"wwwq-ejqqwwwww5-jtqwwqtww,2kwqww",
"wqqq&8uqq8qqwq5%swqqqqwqq,;dq8qq",
"wqqq@qpwqqqwqq5@dwwqqqwqw--dwwq8",
",--%X-<;,-,---$X<,,;-,---o@3,,;-"
};
